<?xml version="1.0" encoding="UTF-8"?>
<!DOCTYPE svg PUBLIC "-//W3C//DTD SVG 1.1//EN" "http://www.w3.org/Graphics/SVG/1.1/DTD/svg11.dtd">
<svg xmlns="http://www.w3.org/2000/svg" version="1.1" width="60px" height="40px" style="shape-rendering:geometricPrecision; text-rendering:geometricPrecision; image-rendering:optimizeQuality; fill-rule:evenodd; clip-rule:evenodd" xmlns:xlink="http://www.w3.org/1999/xlink">
<g><path style="opacity:0.871" fill="#02035d" d="M -0.5,31.5 C -0.5,30.5 -0.5,29.5 -0.5,28.5C 0.93142,26.563 2.59809,24.7297 4.5,23C 10.2316,20.2006 16.2316,18.2006 22.5,17C 27.4024,11.7707 31.9024,6.27067 36,0.5C 37.2798,0.613477 38.1131,1.28014 38.5,2.5C 42.9983,3.10222 47.3316,4.26889 51.5,6C 54.4017,7.93967 55.4017,10.4397 54.5,13.5C 51.1247,12.2936 48.1247,10.4602 45.5,8C 37.981,6.6848 34.3144,9.85147 34.5,17.5C 35.5,17.5 36.5,17.5 37.5,17.5C 37.5,18.8333 37.5,20.1667 37.5,21.5C 36.1266,21.3433 34.7932,21.51 33.5,22C 35.9174,27.2087 39.9174,29.2087 45.5,28C 47.7768,26.0415 50.2768,24.5415 53,23.5C 55.8247,23.9727 56.158,25.306 54,27.5C 47.6868,33.3309 40.8535,33.9976 33.5,29.5C 32.1585,31.0049 30.4918,31.6715 28.5,31.5C 28.5,27.8333 28.5,24.1667 28.5,20.5C 26.7376,20.3573 25.0709,20.6906 23.5,21.5C 18.902,28.1129 12.902,32.7795 5.5,35.5C 2.77504,35.063 0.775041,33.7296 -0.5,31.5 Z M 27.5,15.5 C 28.7733,16.0768 28.7733,16.7435 27.5,17.5C 26.537,17.0302 26.537,16.3635 27.5,15.5 Z M 14.5,21.5 C 15.9778,21.238 17.3112,21.5713 18.5,22.5C 15.7774,27.3472 11.7774,29.8472 6.5,30C 5.48288,28.9505 5.31621,27.7839 6,26.5C 8.68221,24.415 11.5155,22.7483 14.5,21.5 Z"/></g>
</svg>
